<svg xmlns="http://www.w3.org/2000/svg" id="canvas" viewBox="159.774 266.086 750.863 118.708"><path d="M 187.26,287.14 C 186.89 286.73, 186.47 286.52, 185.50 286.44 C 184.53 286.35, 183.82 286.31, 182.40 286.72 C 180.97 287.13, 179.96 287.52, 178.37 288.51 C 176.77 289.50, 176.01 290.21, 174.42 291.68 C 172.84 293.14, 172.00 293.96, 170.45 295.85 C 168.91 297.74, 167.99 298.84, 166.72 301.11 C 165.44 303.39, 164.84 304.71, 164.07 307.25 C 163.30 309.78, 163.03 311.26, 162.87 313.79 C 162.70 316.33, 162.72 317.64, 163.23 319.93 C 163.75 322.21, 164.22 323.42, 165.46 325.24 C 166.70 327.05, 167.65 327.90, 169.43 329.00 C 171.22 330.10, 172.31 330.41, 174.39 330.75 C 176.47 331.08, 177.64 331.05, 179.84 330.66 C 182.04 330.28, 183.26 329.87, 185.37 328.81 C 187.48 327.74, 188.51 326.98, 190.40 325.35 C 192.28 323.72, 193.18 322.72, 194.78 320.66 C 196.39 318.59, 197.18 317.41, 198.43 315.02 C 199.68 312.63, 200.24 311.28, 201.05 308.73 C 201.86 306.18, 202.14 304.76, 202.47 302.27 C 202.81 299.77, 202.85 298.53, 202.71 296.27 C 202.57 294.01, 202.38 292.87, 201.76 290.96 C 201.14 289.06, 200.64 288.20, 199.63 286.75 C 198.62 285.31, 198.00 284.69, 196.73 283.74 C 195.45 282.79, 194.66 282.39, 193.27 281.98 C 191.89 281.57, 191.04 281.58, 189.80 281.70 C 188.56 281.82, 187.93 282.12, 187.07 282.57 C 186.21 283.03, 185.86 283.42, 185.50 283.98 C 185.14 284.54, 185.15 284.99, 185.27 285.38 C 185.39 285.77, 185.77 285.87, 186.11 285.94 C 186.44 286.01, 186.52 285.82, 186.95 285.73 C 187.38 285.63, 187.63 285.64, 188.26 285.48 C 188.90 285.32, 189.29 285.02, 190.12 284.93 C 190.94 284.85, 191.44 284.79, 192.38 285.06 C 193.33 285.33, 193.90 285.57, 194.84 286.27 C 195.78 286.96, 196.29 287.40, 197.07 288.53 C 197.84 289.66, 198.24 290.33, 198.70 291.91 C 199.17 293.49, 199.31 294.46, 199.38 296.43 C 199.44 298.40, 199.37 299.53, 199.02 301.77 C 198.67 304.01, 198.39 305.31, 197.63 307.62 C 196.87 309.94, 196.36 311.17, 195.22 313.33 C 194.08 315.49, 193.36 316.58, 191.92 318.44 C 190.49 320.30, 189.67 321.21, 188.04 322.64 C 186.40 324.08, 185.51 324.70, 183.74 325.62 C 181.97 326.53, 180.96 326.86, 179.18 327.23 C 177.40 327.61, 176.47 327.68, 174.85 327.49 C 173.24 327.29, 172.44 327.08, 171.10 326.28 C 169.75 325.47, 169.05 324.85, 168.12 323.45 C 167.19 322.04, 166.82 321.12, 166.46 319.25 C 166.11 317.38, 166.14 316.26, 166.36 314.08 C 166.58 311.90, 166.83 310.56, 167.55 308.34 C 168.27 306.11, 168.80 304.98, 169.96 302.96 C 171.13 300.95, 171.98 299.96, 173.39 298.27 C 174.80 296.58, 175.58 295.77, 177.00 294.51 C 178.42 293.25, 179.12 292.79, 180.48 291.99 C 181.83 291.20, 182.67 291.06, 183.79 290.55 C 184.91 290.03, 185.36 289.83, 186.07 289.43 C 186.79 289.02, 187.12 288.96, 187.36 288.50 C 187.59 288.05, 187.63 287.55, 187.26 287.14" style="stroke: black; fill: black;"/><path d="M 206.51,301.37 C 206.01 301.70, 205.74 302.21, 205.43 303.21 C 205.12 304.21, 205.04 304.90, 204.97 306.36 C 204.90 307.82, 204.99 308.82, 205.08 310.49 C 205.18 312.17, 205.30 313.11, 205.44 314.74 C 205.57 316.38, 205.57 317.30, 205.77 318.67 C 205.96 320.05, 206.01 320.77, 206.42 321.63 C 206.83 322.49, 207.16 322.78, 207.81 322.96 C 208.45 323.15, 208.95 323.11, 209.66 322.56 C 210.36 322.01, 210.69 321.44, 211.33 320.21 C 211.96 318.98, 212.16 318.08, 212.82 316.41 C 213.48 314.75, 213.80 313.64, 214.63 311.89 C 215.45 310.14, 215.98 309.17, 216.96 307.66 C 217.94 306.15, 218.54 305.44, 219.52 304.35 C 220.51 303.25, 221.00 302.77, 221.87 302.18 C 222.74 301.58, 223.15 301.46, 223.85 301.37 C 224.56 301.27, 224.87 301.31, 225.37 301.68 C 225.87 302.05, 226.00 302.30, 226.36 303.22 C 226.72 304.14, 226.90 304.79, 227.18 306.27 C 227.46 307.75, 227.58 308.79, 227.77 310.60 C 227.96 312.42, 227.99 313.54, 228.14 315.36 C 228.29 317.18, 228.30 318.19, 228.54 319.72 C 228.78 321.24, 228.97 322.00, 229.33 322.99 C 229.69 323.98, 229.94 324.36, 230.34 324.66 C 230.73 324.96, 231.02 324.89, 231.30 324.51 C 231.59 324.12, 231.62 323.73, 231.77 322.73 C 231.92 321.73, 232.00 321.01, 232.05 319.50 C 232.10 317.99, 232.04 317.03, 232.01 315.16 C 231.98 313.30, 232.08 312.16, 231.89 310.18 C 231.69 308.21, 231.56 307.02, 231.03 305.29 C 230.50 303.57, 230.09 302.76, 229.24 301.57 C 228.39 300.37, 227.89 299.90, 226.77 299.31 C 225.65 298.73, 224.92 298.57, 223.64 298.62 C 222.36 298.68, 221.65 298.92, 220.36 299.60 C 219.06 300.27, 218.44 300.81, 217.16 301.99 C 215.87 303.17, 215.17 303.91, 213.94 305.51 C 212.71 307.11, 212.06 308.14, 211.00 309.97 C 209.93 311.81, 209.36 312.91, 208.61 314.68 C 207.86 316.45, 207.50 317.43, 207.24 318.82 C 206.98 320.21, 207.10 320.91, 207.30 321.64 C 207.51 322.37, 207.90 322.52, 208.28 322.45 C 208.65 322.39, 208.96 322.12, 209.18 321.32 C 209.41 320.52, 209.35 319.80, 209.38 318.45 C 209.41 317.10, 209.35 316.20, 209.34 314.57 C 209.33 312.94, 209.39 311.98, 209.34 310.32 C 209.30 308.65, 209.27 307.63, 209.11 306.24 C 208.96 304.84, 208.80 304.27, 208.56 303.33 C 208.33 302.39, 208.34 301.94, 207.93 301.55 C 207.52 301.16, 207.01 301.04, 206.51 301.37" style="stroke: black; fill: black;"/><path d="M 241.46,275.78 C 241.10 276.18, 241.09 276.50, 240.96 277.49 C 240.83 278.49, 240.73 279.16, 240.80 280.76 C 240.87 282.36, 241.08 283.39, 241.32 285.51 C 241.56 287.62, 241.78 288.88, 241.98 291.32 C 242.18 293.75, 242.25 295.07, 242.33 297.67 C 242.42 300.27, 242.37 301.71, 242.42 304.33 C 242.47 306.95, 242.50 308.32, 242.58 310.75 C 242.66 313.19, 242.64 314.45, 242.82 316.51 C 243.00 318.56, 243.17 319.61, 243.46 321.03 C 243.75 322.46, 243.93 322.89, 244.27 323.65 C 244.61 324.40, 244.88 324.57, 245.18 324.81 C 245.48 325.06, 245.60 324.91, 245.76 324.89 C 245.93 324.88, 245.88 324.83, 246.00 324.74 C 246.12 324.65, 246.22 324.76, 246.34 324.45 C 246.46 324.13, 246.57 323.91, 246.59 323.15 C 246.61 322.40, 246.52 322.02, 246.45 320.65 C 246.38 319.28, 246.31 318.30, 246.24 316.30 C 246.18 314.31, 246.16 313.07, 246.13 310.67 C 246.10 308.27, 246.09 306.91, 246.09 304.30 C 246.08 301.68, 246.14 300.24, 246.12 297.59 C 246.09 294.94, 246.07 293.57, 245.96 291.06 C 245.84 288.55, 245.76 287.21, 245.54 285.05 C 245.31 282.89, 245.15 281.86, 244.83 280.27 C 244.52 278.67, 244.36 278.01, 243.94 277.06 C 243.53 276.11, 243.25 275.77, 242.76 275.51 C 242.26 275.26, 241.82 275.39, 241.46 275.78" style="stroke: black; fill: black;"/><path d="M 254.19,301.30 C 253.77 301.65, 253.63 302.04, 253.45 302.93 C 253.27 303.82, 253.25 304.44, 253.28 305.74 C 253.31 307.04, 253.43 307.86, 253.60 309.43 C 253.78 311.01, 253.92 311.97, 254.15 313.63 C 254.38 315.29, 254.50 316.27, 254.74 317.73 C 254.98 319.20, 255.09 319.89, 255.36 320.97 C 255.63 322.05, 255.77 322.52, 256.10 323.14 C 256.43 323.76, 256.70 323.86, 257.02 324.06 C 257.34 324.26, 257.52 324.20, 257.71 324.15 C 257.90 324.09, 257.87 323.90, 257.97 323.78 C 258.06 323.66, 258.05 323.77, 258.17 323.53 C 258.29 323.30, 258.50 323.21, 258.58 322.61 C 258.65 322.00, 258.56 321.57, 258.53 320.51 C 258.49 319.46, 258.47 318.80, 258.40 317.34 C 258.32 315.88, 258.29 314.89, 258.17 313.22 C 258.05 311.55, 257.98 310.57, 257.81 308.99 C 257.65 307.40, 257.60 306.57, 257.36 305.30 C 257.11 304.02, 256.94 303.43, 256.58 302.61 C 256.22 301.78, 256.04 301.44, 255.56 301.17 C 255.09 300.91, 254.61 300.94, 254.19 301.30" style="stroke: black; fill: black;"/><path d="M 256.27,285.50 C 256.34 285.29, 256.38 285.71, 256.18 286.28 C 255.98 286.86, 255.43 288.08, 255.29 288.39 C 255.15 288.71, 255.15 288.51, 255.48 287.85 C 255.82 287.20, 256.70 285.81, 256.97 285.11 C 257.23 284.42, 257.04 284.10, 256.81 284.38 C 256.57 284.66, 255.99 285.92, 255.79 286.50 C 255.60 287.09, 255.75 287.52, 255.85 287.32 C 255.94 287.12, 256.21 285.71, 256.27 285.50" style="stroke: black; fill: black;"/><path d="M 269.76,299.52 C 269.43 299.92, 269.45 300.26, 269.40 301.08 C 269.34 301.89, 269.37 302.37, 269.49 303.60 C 269.60 304.82, 269.73 305.64, 269.96 307.19 C 270.20 308.74, 270.46 309.63, 270.66 311.33 C 270.86 313.02, 270.84 313.97, 270.95 315.66 C 271.06 317.36, 271.10 318.26, 271.20 319.80 C 271.30 321.35, 271.20 322.17, 271.44 323.37 C 271.68 324.58, 271.85 325.21, 272.42 325.83 C 272.99 326.45, 273.52 326.64, 274.28 326.48 C 275.03 326.33, 275.53 326.00, 276.21 325.05 C 276.88 324.09, 277.14 323.29, 277.66 321.72 C 278.18 320.16, 278.25 319.07, 278.82 317.23 C 279.38 315.39, 279.71 314.34, 280.49 312.52 C 281.28 310.70, 281.78 309.74, 282.75 308.15 C 283.72 306.55, 284.29 305.76, 285.35 304.55 C 286.40 303.34, 287.01 302.84, 288.01 302.10 C 289.01 301.35, 289.50 301.07, 290.36 300.84 C 291.21 300.61, 291.53 300.63, 292.27 300.93 C 293.01 301.23, 293.35 301.57, 294.05 302.34 C 294.74 303.12, 295.16 303.64, 295.77 304.81 C 296.38 305.98, 296.66 306.66, 297.09 308.18 C 297.52 309.70, 297.68 310.65, 297.91 312.40 C 298.15 314.16, 298.17 315.18, 298.26 316.94 C 298.35 318.69, 298.27 319.63, 298.36 321.19 C 298.46 322.74, 298.49 323.55, 298.74 324.72 C 298.98 325.90, 299.21 326.38, 299.61 327.06 C 300.00 327.75, 300.30 327.91, 300.69 328.14 C 301.09 328.37, 301.35 328.33, 301.59 328.22 C 301.84 328.12, 301.85 327.80, 301.91 327.60 C 301.97 327.40, 301.87 327.48, 301.89 327.22 C 301.91 326.96, 302.01 326.87, 302.00 326.29 C 301.98 325.71, 301.84 325.37, 301.80 324.33 C 301.77 323.30, 301.80 322.62, 301.84 321.12 C 301.88 319.62, 302.02 318.66, 302.00 316.82 C 301.97 314.97, 301.97 313.84, 301.72 311.90 C 301.46 309.96, 301.27 308.89, 300.72 307.11 C 300.17 305.32, 299.86 304.44, 298.98 302.99 C 298.11 301.54, 297.52 300.82, 296.36 299.85 C 295.19 298.89, 294.47 298.54, 293.15 298.18 C 291.83 297.83, 291.12 297.81, 289.75 298.07 C 288.37 298.32, 287.65 298.63, 286.27 299.47 C 284.89 300.30, 284.16 300.90, 282.85 302.24 C 281.54 303.59, 280.89 304.47, 279.72 306.19 C 278.55 307.92, 277.99 308.94, 277.00 310.87 C 276.02 312.79, 275.53 313.90, 274.78 315.83 C 274.03 317.75, 273.65 318.85, 273.27 320.48 C 272.89 322.12, 272.83 322.95, 272.88 323.99 C 272.92 325.02, 273.20 325.38, 273.50 325.64 C 273.81 325.90, 274.14 325.79, 274.40 325.29 C 274.66 324.78, 274.73 324.25, 274.80 323.13 C 274.88 322.00, 274.80 321.18, 274.77 319.66 C 274.75 318.13, 274.70 317.24, 274.66 315.51 C 274.63 313.78, 274.71 312.78, 274.61 310.99 C 274.51 309.21, 274.38 308.22, 274.16 306.59 C 273.94 304.95, 273.86 304.10, 273.50 302.84 C 273.14 301.57, 272.85 301.01, 272.36 300.26 C 271.88 299.50, 271.58 299.22, 271.06 299.07 C 270.54 298.93, 270.09 299.12, 269.76 299.52" style="stroke: black; fill: black;"/><path d="M 311.40,316.71 C 311.69 317.10, 311.93 317.18, 312.61 317.32 C 313.28 317.46, 313.73 317.55, 314.76 317.42 C 315.79 317.28, 316.49 317.06, 317.78 316.62 C 319.07 316.19, 319.81 315.90, 321.20 315.24 C 322.59 314.58, 323.36 314.21, 324.73 313.33 C 326.09 312.46, 326.90 311.93, 328.04 310.85 C 329.18 309.77, 329.71 309.09, 330.43 307.93 C 331.14 306.78, 331.40 306.22, 331.63 305.08 C 331.86 303.94, 331.91 303.27, 331.57 302.23 C 331.24 301.19, 330.84 300.60, 329.97 299.87 C 329.10 299.15, 328.49 298.85, 327.23 298.60 C 325.96 298.35, 325.17 298.29, 323.65 298.62 C 322.13 298.94, 321.20 299.33, 319.62 300.24 C 318.05 301.15, 317.19 301.78, 315.78 303.17 C 314.36 304.57, 313.59 305.46, 312.54 307.23 C 311.49 309.01, 310.96 310.10, 310.54 312.06 C 310.11 314.03, 309.99 315.16, 310.42 317.06 C 310.85 318.96, 311.34 320.02, 312.68 321.57 C 314.01 323.13, 315.00 323.84, 317.10 324.83 C 319.20 325.83, 320.57 326.18, 323.18 326.57 C 325.79 326.96, 327.58 326.95, 330.15 326.78 C 332.73 326.60, 334.09 326.24, 336.06 325.69 C 338.02 325.13, 339.25 324.58, 339.99 323.98 C 340.72 323.38, 340.61 322.97, 339.73 322.70 C 338.85 322.43, 337.55 322.61, 335.61 322.63 C 333.66 322.65, 332.40 322.78, 330.01 322.78 C 327.63 322.78, 325.99 322.87, 323.68 322.63 C 321.38 322.39, 320.22 322.23, 318.49 321.59 C 316.77 320.95, 316.06 320.46, 315.06 319.43 C 314.06 318.39, 313.75 317.73, 313.51 316.42 C 313.28 315.12, 313.44 314.35, 313.88 312.91 C 314.32 311.46, 314.79 310.58, 315.70 309.19 C 316.62 307.80, 317.27 307.06, 318.45 305.94 C 319.63 304.83, 320.39 304.37, 321.62 303.63 C 322.85 302.90, 323.57 302.60, 324.60 302.27 C 325.63 301.93, 326.06 301.93, 326.78 301.94 C 327.50 301.96, 327.75 302.10, 328.19 302.33 C 328.64 302.55, 328.86 302.67, 329.00 303.07 C 329.14 303.47, 329.14 303.73, 328.89 304.32 C 328.64 304.90, 328.40 305.24, 327.74 306.00 C 327.08 306.75, 326.59 307.28, 325.59 308.10 C 324.59 308.93, 323.93 309.43, 322.74 310.13 C 321.55 310.84, 320.90 311.16, 319.65 311.64 C 318.39 312.12, 317.66 312.19, 316.47 312.55 C 315.29 312.90, 314.60 313.06, 313.71 313.43 C 312.81 313.80, 312.49 314.01, 311.98 314.40 C 311.47 314.79, 311.27 314.93, 311.15 315.40 C 311.03 315.86, 311.10 316.33, 311.40 316.71" style="stroke: black; fill: black;"/><path d="M 392.16,269.26 C 391.76 269.50, 391.64 269.68, 391.39 270.42 C 391.14 271.17, 391.02 271.59, 390.90 272.98 C 390.78 274.37, 390.82 275.29, 390.80 277.36 C 390.79 279.44, 390.80 280.69, 390.81 283.36 C 390.83 286.03, 390.88 287.65, 390.87 290.70 C 390.86 293.74, 390.77 295.46, 390.74 298.60 C 390.72 301.74, 390.74 303.36, 390.75 306.40 C 390.77 309.44, 390.68 311.09, 390.82 313.82 C 390.96 316.54, 391.04 318.04, 391.46 320.03 C 391.88 322.02, 392.22 322.93, 392.92 323.78 C 393.62 324.64, 394.18 324.53, 394.95 324.30 C 395.72 324.07, 396.44 323.45, 396.77 322.64 C 397.10 321.83, 397.11 320.77, 396.60 320.25 C 396.08 319.73, 394.80 319.71, 394.22 320.06 C 393.64 320.40, 393.68 321.30, 393.69 321.98 C 393.70 322.66, 394.06 323.22, 394.26 323.45 C 394.47 323.68, 394.62 323.88, 394.71 323.12 C 394.81 322.35, 394.81 321.52, 394.75 319.62 C 394.68 317.73, 394.53 316.29, 394.40 313.64 C 394.28 310.98, 394.17 309.36, 394.11 306.36 C 394.05 303.36, 394.02 301.77, 394.10 298.66 C 394.19 295.55, 394.35 293.85, 394.52 290.80 C 394.69 287.76, 394.84 286.12, 394.95 283.43 C 395.05 280.75, 395.06 279.48, 395.05 277.37 C 395.04 275.26, 395.07 274.31, 394.90 272.90 C 394.72 271.49, 394.48 271.05, 394.17 270.32 C 393.87 269.59, 393.78 269.46, 393.38 269.25 C 392.97 269.03, 392.55 269.03, 392.16 269.26" style="stroke: black; fill: black;"/><path d="M 404.57,279.54 C 404.22 279.82, 404.18 279.95, 403.97 280.72 C 403.76 281.50, 403.63 281.97, 403.52 283.43 C 403.41 284.90, 403.36 285.92, 403.41 288.05 C 403.46 290.18, 403.58 291.56, 403.76 294.08 C 403.93 296.59, 404.08 298.03, 404.29 300.64 C 404.49 303.24, 404.56 304.61, 404.79 307.09 C 405.02 309.56, 405.11 310.88, 405.44 313.00 C 405.77 315.11, 406.00 316.11, 406.45 317.66 C 406.90 319.21, 407.18 320.17, 407.67 320.75 C 408.15 321.33, 408.58 321.27, 408.88 320.57 C 409.18 319.88, 409.16 318.86, 409.16 317.27 C 409.16 315.68, 409.01 314.70, 408.86 312.61 C 408.71 310.52, 408.57 309.25, 408.42 306.81 C 408.27 304.37, 408.23 302.99, 408.13 300.41 C 408.02 297.82, 407.97 296.37, 407.90 293.87 C 407.83 291.38, 407.84 290.06, 407.79 287.94 C 407.74 285.83, 407.83 284.81, 407.63 283.31 C 407.43 281.80, 407.16 281.22, 406.79 280.43 C 406.41 279.63, 406.18 279.50, 405.74 279.32 C 405.30 279.15, 404.93 279.26, 404.57 279.54" style="stroke: black; fill: black;"/><path d="M 384.98,304.00 C 385.42 304.34, 385.75 304.41, 386.85 304.45 C 387.95 304.48, 388.73 304.40, 390.46 304.16 C 392.19 303.93, 393.32 303.62, 395.52 303.27 C 397.72 302.92, 399.04 302.68, 401.47 302.39 C 403.91 302.11, 405.28 302.05, 407.70 301.86 C 410.11 301.66, 411.39 301.52, 413.54 301.42 C 415.70 301.32, 416.71 301.33, 418.47 301.37 C 420.23 301.40, 421.14 301.55, 422.35 301.61 C 423.55 301.67, 423.98 301.50, 424.51 301.65 C 425.05 301.81, 424.75 302.28, 425.03 302.38 C 425.30 302.48, 425.78 302.58, 425.91 302.13 C 426.03 301.69, 426.26 300.84, 425.65 300.14 C 425.05 299.43, 424.30 299.04, 422.89 298.62 C 421.48 298.20, 420.52 298.18, 418.63 298.04 C 416.74 297.91, 415.68 297.92, 413.45 297.94 C 411.22 297.96, 409.94 298.04, 407.47 298.14 C 405.00 298.24, 403.62 298.26, 401.11 298.43 C 398.59 298.60, 397.18 298.68, 394.88 299.01 C 392.58 299.33, 391.34 299.54, 389.59 300.04 C 387.84 300.54, 387.10 300.95, 386.12 301.50 C 385.14 302.05, 384.90 302.27, 384.67 302.78 C 384.45 303.28, 384.55 303.67, 384.98 304.00" style="stroke: black; fill: black;"/><path d="M 434.11,304.63 C 434.31 304.17, 434.28 303.87, 434.08 303.37 C 433.89 302.88, 433.69 302.60, 433.14 302.16 C 432.58 301.72, 432.20 301.48, 431.32 301.17 C 430.44 300.87, 429.88 300.66, 428.74 300.64 C 427.61 300.62, 426.95 300.70, 425.65 301.05 C 424.35 301.41, 423.64 301.64, 422.23 302.41 C 420.82 303.17, 419.97 303.67, 418.60 304.88 C 417.22 306.09, 416.45 306.88, 415.34 308.45 C 414.24 310.02, 413.65 310.94, 413.05 312.73 C 412.46 314.52, 412.20 315.60, 412.35 317.40 C 412.50 319.20, 412.83 320.25, 413.81 321.73 C 414.79 323.21, 415.58 323.90, 417.26 324.80 C 418.95 325.70, 420.07 326.02, 422.24 326.24 C 424.41 326.47, 425.74 326.38, 428.10 325.92 C 430.46 325.45, 431.80 324.96, 434.05 323.91 C 436.29 322.86, 437.48 322.14, 439.34 320.67 C 441.19 319.20, 442.08 318.29, 443.32 316.56 C 444.57 314.82, 445.06 313.78, 445.57 311.99 C 446.09 310.21, 446.09 309.26, 445.90 307.63 C 445.70 305.99, 445.38 305.11, 444.58 303.82 C 443.78 302.52, 443.10 301.98, 441.90 301.16 C 440.70 300.33, 439.88 300.01, 438.60 299.69 C 437.32 299.36, 436.57 299.37, 435.49 299.52 C 434.42 299.67, 433.87 299.99, 433.24 300.44 C 432.62 300.89, 432.42 301.32, 432.36 301.77 C 432.30 302.22, 432.60 302.50, 432.94 302.70 C 433.29 302.89, 433.55 302.73, 434.09 302.75 C 434.63 302.78, 434.93 302.75, 435.66 302.81 C 436.39 302.87, 436.84 302.81, 437.73 303.05 C 438.61 303.28, 439.23 303.50, 440.09 303.99 C 440.95 304.47, 441.45 304.69, 442.01 305.48 C 442.57 306.28, 442.77 306.86, 442.89 307.97 C 443.00 309.09, 443.04 309.75, 442.59 311.07 C 442.14 312.38, 441.73 313.18, 440.65 314.54 C 439.56 315.89, 438.80 316.64, 437.17 317.83 C 435.54 319.02, 434.45 319.61, 432.49 320.48 C 430.52 321.34, 429.33 321.74, 427.34 322.16 C 425.34 322.58, 424.24 322.65, 422.51 322.59 C 420.79 322.52, 419.93 322.35, 418.71 321.83 C 417.48 321.32, 417.00 320.93, 416.38 320.01 C 415.75 319.09, 415.59 318.44, 415.58 317.23 C 415.58 316.02, 415.79 315.27, 416.35 313.96 C 416.91 312.66, 417.42 311.92, 418.38 310.70 C 419.35 309.48, 420.02 308.83, 421.17 307.85 C 422.31 306.87, 423.01 306.45, 424.12 305.81 C 425.24 305.17, 425.81 304.97, 426.73 304.66 C 427.64 304.35, 428.05 304.26, 428.69 304.26 C 429.33 304.26, 429.49 304.44, 429.93 304.66 C 430.38 304.88, 430.50 305.14, 430.91 305.36 C 431.31 305.59, 431.52 305.73, 431.95 305.79 C 432.39 305.85, 432.65 305.91, 433.08 305.67 C 433.51 305.44, 433.91 305.09, 434.11 304.63" style="stroke: black; fill: black;"/><path d="M 452.33,300.79 C 451.92 301.06, 451.83 301.30, 451.61 302.03 C 451.38 302.75, 451.28 303.23, 451.19 304.41 C 451.09 305.60, 451.15 306.39, 451.15 307.97 C 451.15 309.54, 451.18 310.52, 451.19 312.29 C 451.20 314.06, 451.17 315.12, 451.19 316.84 C 451.20 318.55, 451.08 319.54, 451.26 320.88 C 451.44 322.23, 451.59 322.87, 452.09 323.57 C 452.60 324.27, 453.06 324.52, 453.77 324.37 C 454.48 324.21, 454.99 323.85, 455.65 322.81 C 456.31 321.77, 456.56 320.84, 457.08 319.16 C 457.60 317.48, 457.70 316.34, 458.24 314.41 C 458.78 312.48, 459.09 311.33, 459.78 309.50 C 460.47 307.68, 460.87 306.76, 461.69 305.29 C 462.51 303.82, 463.00 303.18, 463.87 302.16 C 464.75 301.13, 465.26 300.70, 466.07 300.16 C 466.88 299.61, 467.26 299.45, 467.91 299.41 C 468.56 299.37, 468.82 299.47, 469.33 299.97 C 469.84 300.47, 470.04 300.91, 470.44 301.91 C 470.84 302.91, 471.07 303.56, 471.33 304.97 C 471.60 306.38, 471.65 307.32, 471.76 308.95 C 471.87 310.59, 471.87 311.62, 471.87 313.14 C 471.87 314.67, 471.72 315.44, 471.76 316.59 C 471.79 317.75, 471.71 318.30, 472.04 318.94 C 472.36 319.57, 472.76 319.79, 473.38 319.75 C 474.00 319.70, 474.44 319.44, 475.15 318.70 C 475.86 317.96, 476.17 317.32, 476.93 316.03 C 477.70 314.75, 478.05 313.81, 478.98 312.28 C 479.90 310.75, 480.44 309.80, 481.55 308.38 C 482.66 306.95, 483.31 306.26, 484.54 305.16 C 485.77 304.07, 486.50 303.59, 487.70 302.89 C 488.90 302.18, 489.53 301.88, 490.55 301.63 C 491.58 301.38, 492.00 301.39, 492.81 301.66 C 493.61 301.92, 493.94 302.20, 494.60 302.95 C 495.25 303.69, 495.55 304.24, 496.08 305.38 C 496.62 306.51, 496.86 307.22, 497.28 308.64 C 497.70 310.07, 497.84 310.93, 498.20 312.50 C 498.56 314.07, 498.69 314.98, 499.07 316.49 C 499.45 318.01, 499.59 318.82, 500.11 320.07 C 500.63 321.31, 500.99 321.92, 501.66 322.73 C 502.32 323.53, 502.78 323.80, 503.44 324.10 C 504.10 324.39, 504.56 324.38, 504.96 324.20 C 505.35 324.03, 505.45 323.59, 505.41 323.22 C 505.38 322.84, 505.07 322.76, 504.80 322.34 C 504.54 321.92, 504.40 321.79, 504.09 321.12 C 503.78 320.45, 503.54 320.05, 503.25 318.97 C 502.95 317.89, 502.89 317.17, 502.62 315.71 C 502.35 314.25, 502.24 313.33, 501.90 311.69 C 501.55 310.05, 501.41 309.12, 500.89 307.52 C 500.37 305.91, 500.10 305.04, 499.28 303.66 C 498.47 302.28, 497.95 301.57, 496.82 300.61 C 495.70 299.66, 495.01 299.28, 493.65 298.88 C 492.29 298.49, 491.51 298.42, 490.01 298.64 C 488.51 298.85, 487.68 299.18, 486.13 299.94 C 484.58 300.71, 483.77 301.26, 482.26 302.45 C 480.76 303.63, 479.99 304.39, 478.62 305.88 C 477.24 307.37, 476.55 308.31, 475.40 309.91 C 474.25 311.51, 473.57 312.39, 472.86 313.87 C 472.16 315.35, 471.94 316.22, 471.88 317.32 C 471.81 318.41, 472.11 318.96, 472.53 319.35 C 472.95 319.75, 473.43 319.75, 473.96 319.29 C 474.48 318.83, 474.82 318.24, 475.16 317.04 C 475.51 315.84, 475.56 314.96, 475.68 313.29 C 475.80 311.62, 475.88 310.54, 475.77 308.70 C 475.66 306.87, 475.58 305.79, 475.14 304.10 C 474.70 302.41, 474.38 301.57, 473.57 300.27 C 472.76 298.97, 472.23 298.31, 471.09 297.60 C 469.95 296.88, 469.17 296.68, 467.86 296.68 C 466.56 296.67, 465.84 296.92, 464.57 297.58 C 463.30 298.24, 462.68 298.80, 461.52 299.98 C 460.35 301.17, 459.80 301.90, 458.75 303.50 C 457.70 305.10, 457.19 306.07, 456.27 307.99 C 455.34 309.91, 454.87 311.08, 454.14 313.08 C 453.40 315.08, 452.98 316.22, 452.59 317.99 C 452.21 319.75, 452.12 320.74, 452.21 321.91 C 452.29 323.08, 452.64 323.54, 453.03 323.82 C 453.42 324.11, 453.79 323.92, 454.15 323.34 C 454.50 322.75, 454.61 322.18, 454.81 320.90 C 455.00 319.61, 455.00 318.64, 455.10 316.93 C 455.20 315.22, 455.22 314.15, 455.29 312.36 C 455.36 310.57, 455.45 309.58, 455.46 307.97 C 455.46 306.35, 455.47 305.51, 455.30 304.28 C 455.13 303.05, 454.93 302.53, 454.60 301.81 C 454.26 301.08, 454.08 300.86, 453.62 300.65 C 453.17 300.45, 452.73 300.51, 452.33 300.79" style="stroke: black; fill: black;"/><path d="M 511.44,316.74 C 511.78 317.08, 512.04 317.22, 512.79 317.25 C 513.54 317.28, 514.07 317.25, 515.20 316.89 C 516.33 316.53, 517.07 316.21, 518.44 315.44 C 519.82 314.67, 520.61 314.10, 522.07 313.05 C 523.53 312.00, 524.37 311.38, 525.74 310.19 C 527.11 309.00, 527.80 308.31, 528.91 307.10 C 530.02 305.89, 530.60 305.33, 531.31 304.13 C 532.01 302.93, 532.31 302.27, 532.43 301.11 C 532.55 299.96, 532.45 299.31, 531.90 298.36 C 531.36 297.42, 530.87 296.92, 529.70 296.41 C 528.54 295.89, 527.72 295.72, 526.08 295.79 C 524.45 295.86, 523.40 296.08, 521.53 296.75 C 519.66 297.43, 518.54 297.98, 516.73 299.17 C 514.92 300.36, 513.94 301.15, 512.48 302.70 C 511.02 304.25, 510.29 305.17, 509.43 306.94 C 508.56 308.70, 508.24 309.72, 508.17 311.52 C 508.09 313.33, 508.26 314.32, 509.03 315.94 C 509.80 317.57, 510.47 318.38, 512.00 319.66 C 513.53 320.93, 514.55 321.47, 516.68 322.32 C 518.81 323.18, 520.13 323.56, 522.65 323.94 C 525.17 324.31, 526.87 324.33, 529.29 324.21 C 531.72 324.10, 532.98 323.80, 534.77 323.37 C 536.57 322.93, 537.60 322.55, 538.27 322.05 C 538.94 321.54, 538.87 321.16, 538.12 320.83 C 537.36 320.51, 536.27 320.53, 534.51 320.42 C 532.74 320.31, 531.53 320.36, 529.27 320.27 C 527.01 320.18, 525.46 320.27, 523.20 319.98 C 520.94 319.69, 519.79 319.44, 517.96 318.83 C 516.14 318.23, 515.31 317.81, 514.07 316.96 C 512.83 316.11, 512.33 315.62, 511.76 314.58 C 511.18 313.53, 511.08 312.94, 511.21 311.73 C 511.33 310.52, 511.60 309.81, 512.38 308.52 C 513.15 307.24, 513.79 306.51, 515.09 305.31 C 516.38 304.11, 517.27 303.48, 518.84 302.54 C 520.42 301.60, 521.42 301.21, 522.96 300.63 C 524.50 300.05, 525.34 299.90, 526.53 299.65 C 527.71 299.39, 528.21 299.37, 528.89 299.36 C 529.57 299.35, 529.73 299.36, 529.92 299.60 C 530.10 299.84, 530.07 300.01, 529.83 300.56 C 529.59 301.10, 529.39 301.51, 528.70 302.32 C 528.01 303.12, 527.48 303.60, 526.40 304.58 C 525.32 305.56, 524.62 306.19, 523.29 307.21 C 521.97 308.24, 521.16 308.80, 519.78 309.69 C 518.39 310.59, 517.62 311.00, 516.37 311.69 C 515.12 312.37, 514.43 312.55, 513.51 313.11 C 512.59 313.66, 512.24 313.97, 511.76 314.45 C 511.28 314.94, 511.17 315.07, 511.10 315.53 C 511.04 315.98, 511.11 316.39, 511.44 316.74" style="stroke: black; fill: black;"/><path d="M 596.75,281.86 C 596.30 282.11, 596.08 282.36, 595.76 283.22 C 595.43 284.07, 595.31 284.65, 595.12 286.14 C 594.92 287.63, 594.90 288.56, 594.78 290.68 C 594.66 292.80, 594.68 294.11, 594.52 296.73 C 594.37 299.35, 594.28 300.87, 594.01 303.78 C 593.74 306.70, 593.58 308.35, 593.20 311.32 C 592.82 314.28, 592.45 315.82, 592.12 318.60 C 591.78 321.37, 591.60 322.85, 591.54 325.18 C 591.47 327.50, 591.58 328.67, 591.79 330.22 C 592.00 331.78, 592.23 332.41, 592.58 332.95 C 592.94 333.50, 593.24 333.47, 593.58 332.93 C 593.92 332.40, 593.99 331.78, 594.27 330.28 C 594.54 328.78, 594.68 327.69, 594.97 325.44 C 595.25 323.19, 595.35 321.77, 595.69 319.03 C 596.04 316.30, 596.28 314.75, 596.69 311.78 C 597.09 308.81, 597.34 307.14, 597.72 304.19 C 598.10 301.24, 598.33 299.70, 598.59 297.04 C 598.84 294.39, 598.89 293.05, 598.99 290.90 C 599.10 288.75, 599.17 287.82, 599.11 286.32 C 599.05 284.81, 598.90 284.26, 598.68 283.39 C 598.46 282.53, 598.39 282.32, 598.01 282.01 C 597.62 281.70, 597.20 281.62, 596.75 281.86" style="stroke: black; fill: black;"/><path d="M 586.15,283.23 C 586.32 283.60, 586.34 283.76, 586.94 284.04 C 587.54 284.31, 587.95 284.48, 589.16 284.61 C 590.37 284.73, 591.10 284.68, 592.98 284.67 C 594.85 284.66, 596.05 284.61, 598.53 284.55 C 601.01 284.49, 602.54 284.42, 605.38 284.37 C 608.23 284.32, 609.88 284.33, 612.77 284.30 C 615.66 284.26, 617.20 284.25, 619.83 284.22 C 622.45 284.18, 623.74 284.18, 625.88 284.14 C 628.02 284.11, 629.09 284.11, 630.53 284.03 C 631.97 283.96, 632.36 283.92, 633.10 283.76 C 633.83 283.61, 633.94 283.41, 634.20 283.25 C 634.46 283.10, 634.31 283.09, 634.38 282.98 C 634.45 282.87, 634.57 282.88, 634.56 282.72 C 634.56 282.56, 634.63 282.41, 634.35 282.18 C 634.08 281.94, 633.94 281.78, 633.19 281.56 C 632.44 281.35, 632.07 281.26, 630.61 281.10 C 629.16 280.94, 628.08 280.86, 625.93 280.77 C 623.77 280.67, 622.46 280.68, 619.83 280.64 C 617.20 280.60, 615.67 280.64, 612.78 280.59 C 609.89 280.54, 608.24 280.44, 605.38 280.39 C 602.52 280.34, 600.97 280.34, 598.48 280.35 C 595.98 280.36, 594.79 280.37, 592.91 280.42 C 591.03 280.47, 590.29 280.42, 589.08 280.59 C 587.87 280.77, 587.45 280.97, 586.86 281.28 C 586.26 281.59, 586.25 281.77, 586.10 282.15 C 585.96 282.54, 585.98 282.85, 586.15 283.23" style="stroke: black; fill: black;"/><path d="M 591.13,301.87 C 591.51 302.31, 591.94 302.52, 592.98 302.69 C 594.01 302.87, 594.80 302.86, 596.30 302.74 C 597.81 302.63, 598.69 302.42, 600.50 302.11 C 602.31 301.80, 603.43 301.59, 605.36 301.20 C 607.30 300.81, 608.34 300.54, 610.17 300.16 C 611.99 299.78, 612.89 299.57, 614.48 299.28 C 616.08 298.98, 616.85 298.85, 618.14 298.68 C 619.43 298.51, 619.97 298.55, 620.94 298.41 C 621.91 298.27, 622.36 298.22, 622.98 297.99 C 623.59 297.77, 623.82 297.60, 624.01 297.28 C 624.21 296.95, 624.17 296.68, 623.96 296.38 C 623.74 296.08, 623.56 295.99, 622.94 295.79 C 622.31 295.58, 621.86 295.42, 620.83 295.35 C 619.80 295.29, 619.18 295.36, 617.80 295.47 C 616.42 295.57, 615.60 295.68, 613.95 295.90 C 612.29 296.11, 611.37 296.28, 609.52 296.56 C 607.67 296.84, 606.63 297.02, 604.69 297.30 C 602.75 297.58, 601.62 297.67, 599.82 297.95 C 598.02 298.23, 597.13 298.37, 595.70 298.69 C 594.27 299.01, 593.60 299.18, 592.67 299.54 C 591.74 299.91, 591.38 300.05, 591.07 300.52 C 590.77 300.98, 590.75 301.44, 591.13 301.87" style="stroke: black; fill: black;"/><path d="M 631.82,298.00 C 631.38 298.21, 631.28 298.44, 630.95 299.11 C 630.62 299.78, 630.39 300.18, 630.17 301.35 C 629.96 302.51, 629.94 303.31, 629.85 304.94 C 629.77 306.57, 629.71 307.57, 629.77 309.50 C 629.83 311.43, 629.86 312.57, 630.15 314.59 C 630.43 316.62, 630.68 317.77, 631.21 319.61 C 631.73 321.45, 632.06 322.30, 632.78 323.81 C 633.51 325.33, 633.86 326.05, 634.83 327.18 C 635.81 328.31, 636.39 328.87, 637.66 329.46 C 638.93 330.05, 639.73 330.21, 641.18 330.11 C 642.62 330.01, 643.43 329.76, 644.88 328.96 C 646.32 328.17, 647.04 327.54, 648.38 326.13 C 649.72 324.72, 650.37 323.79, 651.59 321.91 C 652.82 320.04, 653.46 318.85, 654.49 316.75 C 655.53 314.65, 656.00 313.42, 656.79 311.41 C 657.57 309.40, 658.01 308.32, 658.41 306.70 C 658.81 305.08, 658.91 304.20, 658.81 303.30 C 658.70 302.39, 658.31 302.10, 657.88 302.18 C 657.44 302.26, 657.00 302.66, 656.64 303.71 C 656.27 304.75, 656.04 305.64, 656.05 307.40 C 656.06 309.15, 656.37 310.41, 656.68 312.50 C 657.00 314.58, 657.21 315.77, 657.62 317.83 C 658.03 319.90, 658.24 321.01, 658.72 322.82 C 659.20 324.63, 659.50 325.61, 660.01 326.89 C 660.52 328.17, 660.78 328.59, 661.27 329.23 C 661.76 329.88, 662.09 329.96, 662.47 330.11 C 662.85 330.25, 663.03 330.06, 663.17 329.95 C 663.31 329.85, 663.15 329.70, 663.18 329.59 C 663.22 329.49, 663.28 329.68, 663.34 329.42 C 663.41 329.17, 663.56 329.01, 663.51 328.32 C 663.45 327.63, 663.32 327.23, 663.07 325.97 C 662.82 324.71, 662.57 323.78, 662.25 322.03 C 661.93 320.28, 661.71 319.23, 661.47 317.22 C 661.23 315.21, 661.24 314.01, 661.06 311.98 C 660.89 309.94, 660.85 308.72, 660.59 307.03 C 660.32 305.35, 660.20 304.60, 659.74 303.57 C 659.28 302.54, 658.92 302.09, 658.30 301.89 C 657.68 301.70, 657.27 301.86, 656.63 302.60 C 656.00 303.33, 655.78 304.10, 655.12 305.57 C 654.46 307.05, 654.16 308.10, 653.33 309.98 C 652.51 311.86, 652.00 313.02, 650.99 314.98 C 649.97 316.93, 649.34 318.05, 648.25 319.77 C 647.17 321.50, 646.60 322.35, 645.56 323.61 C 644.52 324.86, 644.00 325.35, 643.05 326.05 C 642.11 326.74, 641.66 326.93, 640.83 327.09 C 640.00 327.24, 639.63 327.20, 638.91 326.84 C 638.18 326.48, 637.83 326.15, 637.21 325.28 C 636.59 324.41, 636.30 323.81, 635.79 322.50 C 635.29 321.19, 635.06 320.40, 634.70 318.73 C 634.34 317.05, 634.17 315.99, 633.99 314.14 C 633.82 312.28, 633.81 311.26, 633.83 309.46 C 633.86 307.66, 634.05 306.70, 634.12 305.14 C 634.18 303.57, 634.22 302.79, 634.17 301.64 C 634.12 300.49, 634.08 300.10, 633.88 299.39 C 633.68 298.68, 633.58 298.37, 633.17 298.09 C 632.76 297.82, 632.26 297.80, 631.82 298.00" style="stroke: black; fill: black;"/><path d="M 668.13,307.59 C 667.76 307.96, 667.77 308.29, 667.65 309.10 C 667.52 309.92, 667.43 310.43, 667.49 311.69 C 667.55 312.95, 667.75 313.86, 667.95 315.42 C 668.15 316.97, 668.31 317.88, 668.51 319.46 C 668.71 321.04, 668.62 321.95, 668.95 323.30 C 669.27 324.66, 669.49 325.53, 670.14 326.24 C 670.80 326.94, 671.45 327.09, 672.22 326.85 C 673.00 326.60, 673.42 326.17, 674.00 325.02 C 674.58 323.86, 674.82 322.89, 675.13 321.06 C 675.44 319.23, 675.40 317.89, 675.54 315.87 C 675.68 313.85, 675.65 312.73, 675.84 310.95 C 676.03 309.16, 676.17 308.31, 676.51 306.95 C 676.85 305.59, 677.06 305.05, 677.54 304.14 C 678.03 303.22, 678.38 302.92, 678.95 302.37 C 679.52 301.82, 679.80 301.62, 680.42 301.39 C 681.03 301.17, 681.27 301.16, 682.00 301.26 C 682.74 301.35, 683.24 301.66, 684.08 301.87 C 684.93 302.08, 685.41 302.26, 686.22 302.31 C 687.04 302.36, 687.68 302.42, 688.18 302.13 C 688.67 301.84, 688.87 301.43, 688.71 300.86 C 688.55 300.29, 688.11 299.84, 687.38 299.30 C 686.65 298.75, 686.14 298.42, 685.05 298.13 C 683.97 297.84, 683.13 297.73, 681.96 297.85 C 680.80 297.97, 680.24 298.24, 679.25 298.72 C 678.25 299.20, 677.83 299.47, 676.97 300.25 C 676.12 301.04, 675.69 301.50, 674.98 302.65 C 674.27 303.80, 673.99 304.46, 673.43 305.99 C 672.88 307.52, 672.64 308.43, 672.19 310.30 C 671.73 312.17, 671.52 313.29, 671.17 315.33 C 670.81 317.38, 670.52 318.69, 670.41 320.52 C 670.30 322.35, 670.40 323.34, 670.61 324.47 C 670.82 325.59, 671.12 325.93, 671.46 326.15 C 671.81 326.37, 672.10 326.22, 672.34 325.57 C 672.58 324.92, 672.63 324.19, 672.67 322.90 C 672.71 321.61, 672.61 320.72, 672.54 319.12 C 672.47 317.51, 672.51 316.50, 672.32 314.88 C 672.14 313.26, 671.95 312.30, 671.61 311.03 C 671.26 309.77, 671.04 309.29, 670.61 308.54 C 670.18 307.79, 669.97 307.46, 669.47 307.27 C 668.97 307.08, 668.49 307.22, 668.13 307.59" style="stroke: black; fill: black;"/><path d="M 699.99,302.32 C 699.61 302.65, 699.60 302.91, 699.43 303.63 C 699.27 304.34, 699.21 304.78, 699.16 305.91 C 699.12 307.04, 699.16 307.78, 699.21 309.29 C 699.26 310.81, 699.34 311.79, 699.41 313.48 C 699.49 315.18, 699.58 316.09, 699.59 317.78 C 699.61 319.47, 699.55 320.39, 699.50 321.93 C 699.45 323.46, 699.30 324.24, 699.34 325.44 C 699.38 326.63, 699.39 327.26, 699.69 327.90 C 700.00 328.54, 700.35 328.73, 700.86 328.64 C 701.37 328.55, 701.83 328.29, 702.26 327.46 C 702.69 326.62, 702.83 325.89, 703.01 324.48 C 703.20 323.06, 703.04 322.10, 703.19 320.37 C 703.34 318.65, 703.43 317.62, 703.76 315.85 C 704.09 314.07, 704.29 313.10, 704.82 311.49 C 705.36 309.87, 705.71 309.10, 706.44 307.75 C 707.18 306.41, 707.63 305.73, 708.50 304.78 C 709.38 303.82, 709.84 303.48, 710.83 302.96 C 711.81 302.45, 712.35 302.28, 713.42 302.20 C 714.49 302.13, 715.05 302.20, 716.17 302.61 C 717.29 303.01, 717.93 303.39, 719.04 304.23 C 720.14 305.06, 720.76 305.58, 721.70 306.77 C 722.63 307.97, 723.05 308.68, 723.70 310.20 C 724.35 311.71, 724.56 312.66, 724.94 314.36 C 725.32 316.06, 725.40 317.03, 725.58 318.70 C 725.77 320.37, 725.81 321.24, 725.87 322.72 C 725.92 324.19, 725.79 324.93, 725.87 326.08 C 725.94 327.23, 726.02 327.73, 726.24 328.46 C 726.47 329.19, 726.69 329.42, 727.01 329.73 C 727.34 330.05, 727.61 330.08, 727.86 330.04 C 728.11 330.00, 728.18 329.69, 728.28 329.53 C 728.38 329.37, 728.26 329.47, 728.37 329.21 C 728.48 328.96, 728.68 328.90, 728.82 328.28 C 728.95 327.66, 728.94 327.24, 729.05 326.12 C 729.15 325.00, 729.30 324.23, 729.32 322.68 C 729.34 321.12, 729.32 320.17, 729.16 318.35 C 729.00 316.53, 728.94 315.49, 728.52 313.57 C 728.09 311.65, 727.83 310.56, 727.03 308.75 C 726.24 306.94, 725.71 306.03, 724.54 304.54 C 723.37 303.05, 722.64 302.34, 721.17 301.30 C 719.70 300.26, 718.81 299.79, 717.20 299.34 C 715.59 298.88, 714.69 298.87, 713.13 299.03 C 711.57 299.20, 710.80 299.48, 709.40 300.17 C 708.01 300.87, 707.35 301.34, 706.16 302.51 C 704.98 303.69, 704.43 304.49, 703.49 306.04 C 702.55 307.59, 702.17 308.47, 701.47 310.26 C 700.76 312.05, 700.47 313.06, 699.95 314.98 C 699.43 316.89, 699.17 317.98, 698.87 319.84 C 698.58 321.69, 698.44 322.74, 698.48 324.24 C 698.51 325.74, 698.67 326.44, 699.04 327.35 C 699.41 328.25, 699.76 328.59, 700.34 328.77 C 700.91 328.94, 701.43 328.84, 701.92 328.23 C 702.41 327.62, 702.55 326.94, 702.79 325.71 C 703.02 324.49, 702.98 323.69, 703.09 322.12 C 703.21 320.54, 703.30 319.57, 703.36 317.84 C 703.43 316.10, 703.41 315.16, 703.43 313.43 C 703.46 311.69, 703.54 310.72, 703.49 309.16 C 703.44 307.60, 703.41 306.81, 703.20 305.62 C 702.98 304.42, 702.81 303.90, 702.43 303.18 C 702.05 302.46, 701.79 302.19, 701.30 302.02 C 700.81 301.85, 700.36 302.00, 699.99 302.32" style="stroke: black; fill: black;"/><path d="M 740.43,305.14 C 739.97 305.44, 739.78 305.83, 739.46 306.74 C 739.14 307.65, 739.00 308.25, 738.84 309.70 C 738.68 311.15, 738.66 312.20, 738.67 313.99 C 738.67 315.79, 738.77 316.85, 738.86 318.69 C 738.94 320.53, 739.03 321.52, 739.10 323.18 C 739.17 324.85, 739.08 325.73, 739.22 327.01 C 739.37 328.29, 739.58 328.82, 739.83 329.59 C 740.08 330.36, 740.18 330.60, 740.49 330.86 C 740.80 331.11, 741.06 331.12, 741.36 330.86 C 741.67 330.60, 741.80 330.34, 742.03 329.57 C 742.27 328.80, 742.40 328.29, 742.54 327.01 C 742.69 325.73, 742.72 324.83, 742.77 323.16 C 742.83 321.49, 742.76 320.47, 742.81 318.65 C 742.85 316.82, 742.96 315.81, 743.00 314.04 C 743.04 312.27, 743.11 311.23, 743.01 309.79 C 742.92 308.36, 742.75 307.77, 742.51 306.86 C 742.26 305.96, 742.21 305.60, 741.80 305.25 C 741.38 304.91, 740.90 304.85, 740.43 305.14" style="stroke: black; fill: black;"/><path d="M 741.29,289.07 C 741.42 289.39, 741.31 289.21, 741.20 289.43 C 741.08 289.66, 740.90 289.86, 740.72 290.19 C 740.54 290.51, 740.15 291.07, 740.30 291.05 C 740.45 291.03, 740.92 290.72, 741.47 290.09 C 742.01 289.46, 742.72 288.70, 743.04 287.91 C 743.35 287.11, 743.31 286.36, 743.04 286.11 C 742.76 285.85, 742.11 286.38, 741.67 286.64 C 741.23 286.89, 741.06 287.13, 740.84 287.38 C 740.63 287.62, 740.49 287.51, 740.58 287.84 C 740.66 288.18, 741.17 288.75, 741.29 289.07" style="stroke: black; fill: black;"/><path d="M 773.25,300.87 C 773.16 300.37, 772.91 300.09, 772.28 299.66 C 771.66 299.24, 771.22 298.95, 770.13 298.76 C 769.05 298.57, 768.21 298.57, 766.87 298.71 C 765.53 298.86, 764.79 299.08, 763.41 299.47 C 762.03 299.86, 761.27 300.11, 759.98 300.68 C 758.70 301.25, 757.96 301.51, 756.99 302.31 C 756.01 303.12, 755.53 303.64, 755.10 304.71 C 754.67 305.78, 754.56 306.47, 754.84 307.66 C 755.11 308.85, 755.48 309.52, 756.46 310.65 C 757.44 311.79, 758.20 312.31, 759.74 313.36 C 761.28 314.40, 762.25 314.87, 764.16 315.90 C 766.07 316.93, 767.27 317.48, 769.29 318.49 C 771.31 319.50, 772.53 320.01, 774.27 320.96 C 776.02 321.91, 776.83 322.37, 778.00 323.26 C 779.17 324.15, 779.59 324.63, 780.11 325.40 C 780.62 326.16, 780.78 326.45, 780.58 327.08 C 780.37 327.72, 779.99 327.92, 779.07 328.57 C 778.15 329.21, 777.46 329.65, 775.98 330.31 C 774.49 330.97, 773.52 331.29, 771.64 331.85 C 769.76 332.41, 768.59 332.74, 766.58 333.11 C 764.57 333.48, 763.41 333.59, 761.58 333.70 C 759.75 333.80, 758.81 333.79, 757.43 333.64 C 756.05 333.50, 755.51 333.24, 754.70 332.97 C 753.89 332.70, 753.78 332.57, 753.37 332.28 C 752.95 331.99, 752.97 331.61, 752.62 331.53 C 752.28 331.45, 751.83 331.48, 751.66 331.87 C 751.50 332.27, 751.42 332.79, 751.78 333.50 C 752.13 334.22, 752.42 334.75, 753.44 335.42 C 754.45 336.10, 755.22 336.48, 756.87 336.86 C 758.52 337.24, 759.60 337.31, 761.67 337.32 C 763.73 337.34, 764.98 337.25, 767.21 336.92 C 769.43 336.59, 770.68 336.31, 772.78 335.68 C 774.89 335.06, 776.01 334.75, 777.73 333.80 C 779.44 332.86, 780.29 332.20, 781.35 330.96 C 782.41 329.72, 782.79 328.98, 783.02 327.62 C 783.25 326.26, 783.07 325.52, 782.49 324.17 C 781.91 322.82, 781.38 322.14, 780.12 320.87 C 778.86 319.60, 777.97 319.00, 776.17 317.81 C 774.38 316.63, 773.16 316.05, 771.14 314.95 C 769.12 313.85, 767.94 313.31, 766.09 312.32 C 764.25 311.32, 763.34 310.82, 761.91 309.97 C 760.48 309.11, 759.84 308.68, 758.94 308.04 C 758.04 307.39, 757.71 307.18, 757.41 306.74 C 757.10 306.31, 757.12 306.20, 757.40 305.87 C 757.67 305.54, 757.99 305.42, 758.78 305.09 C 759.56 304.76, 760.21 304.56, 761.33 304.21 C 762.46 303.86, 763.19 303.58, 764.39 303.32 C 765.58 303.07, 766.19 303.03, 767.29 302.93 C 768.39 302.83, 769.04 302.89, 769.89 302.82 C 770.74 302.74, 770.99 302.69, 771.55 302.56 C 772.12 302.44, 772.39 302.53, 772.73 302.20 C 773.07 301.86, 773.34 301.38, 773.25 300.87" style="stroke: black; fill: black;"/><path d="M 791.45,277.37 C 791.02 277.61, 790.85 277.79, 790.54 278.62 C 790.24 279.46, 790.05 280.06, 789.93 281.55 C 789.81 283.04, 789.91 283.99, 789.93 286.08 C 789.95 288.16, 790.02 289.41, 790.02 291.98 C 790.01 294.54, 789.96 296.08, 789.91 298.89 C 789.86 301.71, 789.84 303.25, 789.76 306.06 C 789.69 308.87, 789.61 310.34, 789.54 312.95 C 789.46 315.56, 789.34 316.92, 789.38 319.10 C 789.42 321.29, 789.43 322.32, 789.74 323.87 C 790.05 325.42, 790.28 326.05, 790.94 326.86 C 791.60 327.68, 792.07 327.93, 793.04 327.93 C 794.00 327.94, 794.64 327.71, 795.76 326.89 C 796.88 326.07, 797.47 325.31, 798.62 323.82 C 799.77 322.33, 800.29 321.24, 801.51 319.46 C 802.72 317.68, 803.40 316.61, 804.69 314.91 C 805.98 313.22, 806.73 312.36, 807.97 311.00 C 809.21 309.64, 809.88 309.02, 810.90 308.13 C 811.92 307.25, 812.39 306.91, 813.07 306.58 C 813.75 306.25, 813.94 306.24, 814.32 306.48 C 814.69 306.73, 814.80 306.99, 814.94 307.82 C 815.08 308.65, 815.07 309.22, 815.03 310.63 C 814.98 312.04, 814.92 313.02, 814.72 314.86 C 814.52 316.70, 814.34 317.86, 814.03 319.82 C 813.72 321.79, 813.40 322.92, 813.16 324.69 C 812.92 326.47, 812.84 327.41, 812.82 328.71 C 812.80 330.02, 812.79 330.67, 813.05 331.23 C 813.31 331.78, 813.64 331.87, 814.12 331.48 C 814.61 331.09, 814.92 330.50, 815.46 329.30 C 815.99 328.10, 816.30 327.22, 816.80 325.47 C 817.31 323.71, 817.58 322.57, 817.98 320.54 C 818.39 318.50, 818.66 317.30, 818.85 315.27 C 819.03 313.25, 819.14 312.15, 818.93 310.42 C 818.72 308.69, 818.51 307.83, 817.80 306.62 C 817.09 305.42, 816.48 304.90, 815.39 304.40 C 814.30 303.90, 813.62 303.87, 812.35 304.11 C 811.08 304.34, 810.41 304.71, 809.03 305.59 C 807.65 306.47, 806.93 307.13, 805.46 308.50 C 803.99 309.87, 803.17 310.75, 801.68 312.45 C 800.20 314.14, 799.37 315.20, 798.04 316.96 C 796.70 318.73, 795.99 319.75, 795.01 321.28 C 794.03 322.81, 793.63 323.62, 793.15 324.64 C 792.67 325.66, 792.72 326.10, 792.63 326.38 C 792.55 326.66, 792.71 326.59, 792.72 326.02 C 792.73 325.46, 792.68 324.94, 792.69 323.56 C 792.70 322.19, 792.68 321.23, 792.77 319.14 C 792.85 317.04, 792.97 315.68, 793.11 313.10 C 793.25 310.51, 793.32 309.02, 793.45 306.20 C 793.59 303.38, 793.65 301.85, 793.79 299.02 C 793.92 296.19, 794.04 294.64, 794.11 292.04 C 794.19 289.45, 794.19 288.14, 794.17 286.04 C 794.15 283.93, 794.14 282.99, 794.00 281.52 C 793.86 280.05, 793.72 279.51, 793.45 278.69 C 793.19 277.87, 793.07 277.69, 792.67 277.43 C 792.27 277.16, 791.87 277.13, 791.45 277.37" style="stroke: black; fill: black;"/><path d="M 828.13,310.52 C 827.75 310.73, 827.67 310.78, 827.39 311.41 C 827.11 312.03, 826.91 312.48, 826.72 313.65 C 826.52 314.82, 826.52 315.66, 826.41 317.27 C 826.30 318.89, 826.23 319.96, 826.16 321.72 C 826.10 323.48, 826.00 324.62, 826.08 326.08 C 826.15 327.54, 826.36 328.14, 826.55 329.03 C 826.73 329.92, 826.75 330.20, 827.01 330.53 C 827.28 330.86, 827.51 330.93, 827.87 330.68 C 828.24 330.43, 828.46 330.15, 828.85 329.30 C 829.24 328.44, 829.49 327.85, 829.82 326.40 C 830.14 324.96, 830.25 323.83, 830.47 322.07 C 830.69 320.30, 830.81 319.23, 830.92 317.57 C 831.02 315.91, 831.13 315.03, 831.00 313.77 C 830.88 312.51, 830.63 311.94, 830.28 311.25 C 829.93 310.57, 829.68 310.49, 829.25 310.34 C 828.82 310.19, 828.50 310.31, 828.13 310.52" style="stroke: black; fill: black;"/><path d="M 828.57,283.48 C 828.23 283.51, 828.53 283.86, 828.36 284.29 C 828.19 284.72, 827.70 285.46, 827.72 285.64 C 827.74 285.82, 827.86 285.66, 828.46 285.20 C 829.07 284.74, 830.25 283.91, 830.76 283.33 C 831.28 282.76, 831.17 282.29, 831.05 282.33 C 830.92 282.37, 830.35 283.16, 830.14 283.52 C 829.94 283.87, 830.35 284.12, 830.03 284.11 C 829.72 284.10, 828.90 283.44, 828.57 283.48" style="stroke: black; fill: black;"/><path d="M 840.93,308.94 C 840.53 309.25, 840.50 309.53, 840.26 310.29 C 840.02 311.04, 839.85 311.50, 839.73 312.71 C 839.61 313.92, 839.68 314.80, 839.66 316.34 C 839.64 317.88, 839.65 318.71, 839.63 320.40 C 839.60 322.10, 839.52 323.13, 839.54 324.81 C 839.55 326.48, 839.45 327.44, 839.71 328.76 C 839.97 330.08, 840.21 330.72, 840.84 331.41 C 841.48 332.09, 842.02 332.29, 842.87 332.18 C 843.72 332.07, 844.25 331.75, 845.09 330.85 C 845.92 329.96, 846.25 329.21, 847.05 327.71 C 847.86 326.20, 848.19 325.19, 849.09 323.34 C 850.00 321.50, 850.51 320.35, 851.58 318.48 C 852.64 316.62, 853.20 315.60, 854.41 314.00 C 855.61 312.41, 856.33 311.68, 857.60 310.52 C 858.87 309.35, 859.66 308.85, 860.77 308.17 C 861.89 307.49, 862.37 307.26, 863.17 307.12 C 863.96 306.98, 864.23 307.02, 864.74 307.45 C 865.26 307.88, 865.42 308.23, 865.73 309.27 C 866.04 310.30, 866.12 311.05, 866.29 312.63 C 866.47 314.21, 866.55 315.25, 866.60 317.18 C 866.66 319.11, 866.62 320.25, 866.55 322.27 C 866.49 324.29, 866.30 325.43, 866.29 327.26 C 866.28 329.10, 866.30 330.10, 866.52 331.42 C 866.75 332.75, 867.04 333.21, 867.40 333.89 C 867.77 334.57, 868.02 334.69, 868.34 334.83 C 868.67 334.97, 868.85 334.84, 869.03 334.58 C 869.22 334.33, 869.15 334.21, 869.28 333.56 C 869.41 332.91, 869.54 332.54, 869.68 331.31 C 869.81 330.09, 869.80 329.20, 869.96 327.43 C 870.11 325.65, 870.30 324.53, 870.44 322.46 C 870.57 320.39, 870.68 319.16, 870.63 317.07 C 870.58 314.98, 870.55 313.85, 870.18 312.00 C 869.80 310.16, 869.55 309.21, 868.76 307.86 C 867.96 306.51, 867.35 305.95, 866.19 305.27 C 865.03 304.59, 864.34 304.45, 862.97 304.47 C 861.59 304.49, 860.85 304.68, 859.32 305.37 C 857.80 306.06, 856.90 306.64, 855.35 307.91 C 853.80 309.19, 853.00 310.04, 851.57 311.74 C 850.15 313.45, 849.47 314.51, 848.22 316.44 C 846.97 318.36, 846.34 319.50, 845.31 321.38 C 844.28 323.25, 843.73 324.24, 843.07 325.81 C 842.41 327.38, 842.19 328.19, 842.01 329.23 C 841.82 330.26, 842.02 330.67, 842.16 330.97 C 842.31 331.26, 842.53 331.19, 842.74 330.71 C 842.94 330.24, 843.05 329.75, 843.19 328.59 C 843.33 327.43, 843.35 326.50, 843.43 324.89 C 843.52 323.28, 843.53 322.23, 843.63 320.54 C 843.72 318.85, 843.85 318.00, 843.90 316.43 C 843.95 314.87, 844.00 313.97, 843.88 312.71 C 843.76 311.45, 843.60 310.92, 843.28 310.13 C 842.96 309.35, 842.75 309.02, 842.28 308.78 C 841.81 308.54, 841.34 308.64, 840.93 308.94" style="stroke: black; fill: black;"/><path d="M 896.33,316.86 C 896.39 316.32, 896.23 315.96, 895.74 315.30 C 895.26 314.64, 894.90 314.16, 893.90 313.57 C 892.91 312.98, 892.14 312.64, 890.77 312.33 C 889.41 312.03, 888.63 311.97, 887.08 312.03 C 885.52 312.09, 884.58 312.13, 882.99 312.64 C 881.40 313.16, 880.51 313.61, 879.13 314.61 C 877.76 315.61, 877.04 316.31, 876.13 317.65 C 875.22 318.99, 874.83 319.85, 874.59 321.31 C 874.34 322.78, 874.41 323.66, 874.90 324.99 C 875.39 326.31, 875.89 327.01, 877.04 327.94 C 878.19 328.86, 879.02 329.23, 880.64 329.60 C 882.26 329.96, 883.28 329.99, 885.12 329.76 C 886.95 329.54, 888.00 329.23, 889.80 328.48 C 891.59 327.73, 892.54 327.12, 894.08 326.02 C 895.61 324.92, 896.35 324.18, 897.47 322.97 C 898.59 321.76, 899.06 321.11, 899.69 319.97 C 900.31 318.83, 900.57 318.18, 900.61 317.28 C 900.66 316.37, 900.41 315.85, 899.91 315.45 C 899.41 315.06, 898.78 315.01, 898.10 315.30 C 897.42 315.59, 896.97 315.93, 896.50 316.90 C 896.03 317.88, 895.92 318.62, 895.73 320.17 C 895.54 321.71, 895.55 322.63, 895.56 324.64 C 895.58 326.65, 895.62 327.84, 895.79 330.22 C 895.96 332.60, 896.16 333.93, 896.42 336.55 C 896.69 339.17, 896.87 340.57, 897.11 343.33 C 897.35 346.09, 897.48 347.58, 897.62 350.35 C 897.76 353.12, 897.84 354.52, 897.82 357.19 C 897.80 359.86, 897.74 361.28, 897.51 363.69 C 897.28 366.09, 897.17 367.24, 896.66 369.21 C 896.15 371.17, 895.79 372.06, 894.94 373.51 C 894.10 374.96, 893.60 375.55, 892.46 376.46 C 891.32 377.37, 890.67 377.70, 889.24 378.06 C 887.80 378.42, 886.94 378.42, 885.29 378.26 C 883.64 378.11, 882.69 377.91, 881.00 377.29 C 879.32 376.66, 878.37 376.23, 876.87 375.13 C 875.38 374.03, 874.62 373.25, 873.51 371.78 C 872.40 370.30, 871.93 369.40, 871.33 367.76 C 870.72 366.13, 870.50 365.21, 870.48 363.60 C 870.47 362.00, 870.58 361.26, 871.26 359.76 C 871.93 358.26, 872.49 357.53, 873.85 356.10 C 875.20 354.67, 876.10 353.91, 878.04 352.62 C 879.99 351.34, 881.17 350.76, 883.58 349.67 C 885.98 348.58, 887.35 348.01, 890.08 347.18 C 892.80 346.36, 894.61 346.12, 897.22 345.53 C 899.82 344.94, 901.14 344.73, 903.11 344.24 C 905.08 343.76, 906.30 343.58, 907.07 343.11 C 907.84 342.64, 907.84 342.25, 906.98 341.91 C 906.12 341.56, 904.88 341.41, 902.78 341.40 C 900.69 341.38, 899.25 341.37, 896.49 341.82 C 893.74 342.28, 891.89 342.79, 889.00 343.68 C 886.11 344.57, 884.65 345.10, 882.04 346.28 C 879.44 347.45, 878.13 348.06, 875.97 349.56 C 873.81 351.05, 872.78 351.96, 871.24 353.75 C 869.70 355.53, 869.07 356.53, 868.27 358.49 C 867.47 360.46, 867.28 361.50, 867.24 363.58 C 867.20 365.66, 867.40 366.83, 868.09 368.89 C 868.77 370.95, 869.33 372.06, 870.66 373.88 C 871.99 375.71, 872.90 376.67, 874.72 378.03 C 876.54 379.39, 877.69 379.93, 879.76 380.68 C 881.83 381.43, 882.98 381.66, 885.05 381.76 C 887.12 381.86, 888.26 381.76, 890.13 381.18 C 892.00 380.60, 892.89 380.06, 894.39 378.85 C 895.88 377.64, 896.52 376.86, 897.61 375.11 C 898.69 373.36, 899.14 372.31, 899.81 370.10 C 900.48 367.89, 900.63 366.63, 900.95 364.06 C 901.26 361.49, 901.32 360.02, 901.37 357.24 C 901.43 354.47, 901.33 353.03, 901.22 350.19 C 901.12 347.35, 901.03 345.83, 900.83 343.03 C 900.63 340.24, 900.45 338.81, 900.23 336.20 C 900.01 333.59, 899.85 332.28, 899.73 329.98 C 899.62 327.68, 899.60 326.56, 899.65 324.68 C 899.71 322.81, 899.90 321.99, 900.01 320.60 C 900.12 319.22, 900.26 318.62, 900.21 317.77 C 900.16 316.91, 900.03 316.72, 899.77 316.33 C 899.50 315.94, 899.24 315.79, 898.89 315.82 C 898.55 315.86, 898.41 316.01, 898.04 316.50 C 897.66 316.98, 897.61 317.46, 897.01 318.26 C 896.40 319.07, 896.00 319.58, 894.99 320.52 C 893.98 321.45, 893.28 322.07, 891.95 322.96 C 890.62 323.85, 889.81 324.36, 888.34 324.96 C 886.87 325.57, 886.01 325.77, 884.60 325.99 C 883.18 326.21, 882.41 326.18, 881.26 326.07 C 880.11 325.95, 879.58 325.81, 878.87 325.39 C 878.15 324.98, 877.91 324.67, 877.68 323.98 C 877.44 323.30, 877.44 322.84, 877.69 321.98 C 877.95 321.13, 878.24 320.59, 878.95 319.71 C 879.66 318.83, 880.23 318.30, 881.26 317.59 C 882.29 316.88, 882.92 316.52, 884.10 316.16 C 885.28 315.80, 886.01 315.79, 887.15 315.80 C 888.30 315.80, 888.84 315.92, 889.82 316.19 C 890.80 316.46, 891.24 316.81, 892.06 317.15 C 892.87 317.49, 893.21 317.72, 893.89 317.89 C 894.57 318.06, 894.95 318.20, 895.44 318.00 C 895.92 317.79, 896.26 317.40, 896.33 316.86" style="stroke: black; fill: black;"/></svg>